# xmcd
#
# Track frame offsets:
#	150
#	14410
#	31122
#	45352
#	62106
#	78966
#	94671
#	109165
#	123227
#	135594
#	151692
#	165662
#	179678
#	192025
#	209172
#	221783
#	236835
#
# Disc length: 3308 seconds
#
# Revision: 1
# Processed by: cddbd v1.5.2PL0 Copyright (c) Steve Scherf et al.
# Submitted via: audiograbber 1.83.01
#
DISCID=e50cea11
DTITLE=Country Karaoke Classics - CKC50
DYEAR=2006
DGENRE=Karaoke
TTITLE0=Mickey Gilley - Room Full Of Roses
TTITLE1=Mickey Gilley - Put Your Dreams Away
TTITLE2=Mickey Gilley - True Love Ways
TTITLE3=Mickey Gilley - Fool For Your Love
TTITLE4=Mickey Gilley - Stand By Me
TTITLE5=Mickey Gilley - Talk To Me
TTITLE6=Mickey Gilley - Don't The Girls All Get Prettier At Closing Time
TTITLE7=Mickey Gilley - City Lights
TTITLE8=Mickey Gilley - She's Pulling Me Back Again
TTITLE9=Mickey Gilley - Lonely Nights
TTITLE10=Mickey Gilley - I Overlooked An Orchid
TTITLE11=Mickey Gilley - You've Really Got A Hold On Me
TTITLE12=Mickey Gilley - Window Up Above
TTITLE13=Mickey Gilley - Headache Tomorrow (Or A Heartache Tonight)
TTITLE14=Mickey Gilley - That's All That Matters
TTITLE15=Mickey Gilley - You Don't Know Me
TTITLE16=Mickey Gilley - Bring It On Home To Me
EXTD=
EXTT0=
EXTT1=
EXTT2=
EXTT3=
EXTT4=
EXTT5=
EXTT6=
EXTT7=
EXTT8=
EXTT9=
EXTT10=
EXTT11=
EXTT12=
EXTT13=
EXTT14=
EXTT15=
EXTT16=
PLAYORDER=
